# xmcd CD database file
#
# Track frame offsets:
#	150
#	14997
#	32967
#	48715
#	70122
#	90302
#	104832
#	117827
#	135292
#	145497
#
# Disc length: 2163 seconds
#
# Revision: 0
# Processed by: cddbd v1.5.2PL0 Copyright (c) Steve Scherf et al.
# Submitted via: CDex 1.70beta2
#
DISCID=9308710a
DTITLE=Various Artist - Country Music Australia
DYEAR=1900
DGENRE=Country
TTITLE0=Dream Out Loud - Troy Cassar-Daley
TTITLE1=Working in Blues - Troy Cassar-Daley
TTITLE2=Don't Hold Me Back - Tommy Emmanuel
TTITLE3=White Picket Fences - Tommy Emmanuel
TTITLE4=I Haven't Got a Heart - Gina Jefferys
TTITLE5=I Don't Do Lonely - Gina Jefferys
TTITLE6=You're the Reason I never saw Hank Jr. Play - Lee Kernaghan
TTITLE7=Country Crowd - Lee Kernaghan
TTITLE8=The Swimming Song - Mark O'Shea
TTITLE9=World Weary Heart - Mark O'Shea
EXTD=
EXTT0=
EXTT1=
EXTT2=
EXTT3=
EXTT4=
EXTT5=
EXTT6=
EXTT7=
EXTT8=
EXTT9=
PLAYORDER=
